<svg xmlns="http://www.w3.org/2000/svg" viewBox="0 0 640 480"><path fill="#bd3d44" d="M0 0h640v480H0z"/><path fill="#fff" d="M0 40h640v40H0zm0 80h640v40H0zm0 80h640v40H0zm0 80h640v40H0zm0 80h640v40H0zm0 80h640v40H0z"/><path fill="#192f5d" d="M0 0h320v280H0z"/><path fill="#fff" d="m64 48-10-28-10 28h20zm80 0-10-28-10 28h20zm80 0-10-28-10 28h20zm-120 40-10-28-10 28h20zm80 0-10-28-10 28h20zm80 0-10-28-10 28h20zm-120 40-10-28-10 28h20zm80 0-10-28-10 28h20zm80 0-10-28-10 28h20zm-120 40-10-28-10 28h20zm80 0-10-28-10 28h20zm80 0-10-28-10 28h20zm-120 40-10-28-10 28h20zm80 0-10-28-10 28h20zm80 0-10-28-10 28h20z"/></svg>
